<svg version="1.2" baseProfile="tiny-ps" xmlns="http://www.w3.org/2000/svg" viewBox="0 0 35 35" width="35" height="35">
	<title>Contact</title>
	<style>
		tspan { white-space:pre }
		.shp0 { fill: #dc4e41 } 
		.shp1 { fill: #ffffff } 
	</style>
	<g id="Contact">
		<g id="Footer">
			<g id="Group 43">
				<g id="004-google-plus">
					<g id="Group 40">
						<path id="XMLID_30_" class="shp0" d="M17.5 35C7.82 35 0 27.18 0 17.5C0 7.82 7.82 0 17.5 0C27.18 0 35 7.82 35 17.5C35 27.18 27.18 35 17.5 35Z" />
					</g>
					<g id="Group 42">
						<path id="Path 21" class="shp0" d="M12.82 10.87C14.77 10.7 16.67 11.46 18.15 12.69C17.54 13.36 16.93 14.02 16.27 14.64C14.96 13.85 13.4 13.24 11.88 13.78C9.42 14.48 7.94 17.37 8.85 19.78C9.6 22.28 12.65 23.66 15.04 22.6C16.27 22.16 17.09 21.02 17.45 19.79C16.03 19.76 14.61 19.78 13.19 19.74C13.19 18.9 13.19 18.06 13.19 17.22C15.55 17.21 17.92 17.21 20.29 17.23C20.44 19.29 20.13 21.51 18.79 23.17C16.95 25.53 13.55 26.23 10.78 25.3C7.84 24.34 5.71 21.38 5.77 18.28C5.63 14.45 8.98 10.91 12.82 10.87Z" />
						<path id="Path 22" class="shp0" d="M27.01 15.09C27.01 15.79 27.02 16.5 27.02 17.21C27.73 17.22 28.44 17.22 29.14 17.22C29.14 17.93 29.14 18.63 29.14 19.34C28.44 19.34 27.73 19.34 27.02 19.35C27.02 20.06 27.01 20.76 27.01 21.47C26.3 21.47 25.6 21.47 24.9 21.47C24.89 20.76 24.89 20.06 24.88 19.35C24.18 19.34 23.47 19.34 22.76 19.34C22.76 18.63 22.76 17.93 22.76 17.22C23.47 17.22 24.17 17.21 24.88 17.21C24.89 16.5 24.89 15.79 24.9 15.09C25.6 15.09 26.3 15.09 27.01 15.09Z" />
						<g id="Group 41">
							<path id="Path 23" class="shp1" d="M5.77 18.28C5.63 14.45 8.98 10.91 12.82 10.86C14.77 10.7 16.67 11.46 18.15 12.69C17.54 13.36 16.93 14.02 16.27 14.64C14.96 13.85 13.4 13.24 11.88 13.78C9.42 14.48 7.94 17.37 8.84 19.78C9.6 22.28 12.65 23.66 15.04 22.6C16.27 22.16 17.09 21.02 17.45 19.79C16.03 19.76 14.61 19.78 13.19 19.74C13.19 18.9 13.19 18.06 13.19 17.22C15.55 17.21 17.92 17.2 20.29 17.23C20.44 19.29 20.13 21.51 18.79 23.17C16.95 25.53 13.55 26.23 10.78 25.3C7.84 24.34 5.71 21.38 5.77 18.28Z" />
							<path id="Path 24" class="shp1" d="M24.9 15.09C25.6 15.09 26.3 15.09 27.01 15.09C27.01 15.79 27.02 16.5 27.02 17.21C27.73 17.21 28.44 17.22 29.14 17.22C29.14 17.93 29.14 18.63 29.14 19.34C28.44 19.34 27.73 19.34 27.02 19.35C27.02 20.06 27.01 20.76 27.01 21.47C26.3 21.47 25.6 21.47 24.9 21.47C24.89 20.76 24.89 20.06 24.88 19.35C24.18 19.34 23.47 19.34 22.76 19.33C22.76 18.63 22.76 17.93 22.76 17.22C23.47 17.22 24.17 17.21 24.88 17.21C24.89 16.5 24.89 15.79 24.9 15.09Z" />
						</g>
					</g>
				</g>
			</g>
		</g>
	</g>
</svg>