<svg version="1.2" baseProfile="tiny-ps" xmlns="http://www.w3.org/2000/svg" viewBox="0 0 60 58" width="60" height="58">
	<title>Contact</title>
	<style>
		tspan { white-space:pre }
		.shp0 { fill: #5863f8 } 
		.shp1 { fill: none;stroke: #ffffff;stroke-linecap:round;stroke-width: 2 } 
	</style>
	<g id="Contact">
		<path id="Ellipse 26" class="shp0" d="M30 58C13.69 58 0.5 45.04 0.5 29C0.5 12.96 13.69 0 30 0C46.31 0 59.5 12.96 59.5 29C59.5 45.04 46.31 58 30 58Z" />
		<path id="phone" class="shp1" d="M37.04 32.54L37.04 34.95C37.04 35.41 36.85 35.84 36.52 36.15C36.19 36.46 35.74 36.61 35.28 36.57C32.8 36.3 30.42 35.45 28.32 34.09C26.37 32.85 24.72 31.2 23.48 29.25C22.12 27.15 21.27 24.75 21.01 22.26C20.97 21.81 21.12 21.36 21.42 21.03C21.73 20.69 22.16 20.5 22.61 20.5L25.03 20.5C25.84 20.49 26.53 21.09 26.64 21.89C26.75 22.66 26.94 23.42 27.21 24.15C27.43 24.74 27.29 25.41 26.85 25.86L25.82 26.88C26.97 28.9 28.64 30.57 30.66 31.72L31.69 30.7C32.13 30.25 32.8 30.11 33.39 30.33C34.12 30.61 34.88 30.8 35.65 30.9C36.47 31.01 37.06 31.72 37.04 32.54L37.04 32.54Z" />
	</g>
</svg>