<svg version="1.2" baseProfile="tiny-ps" xmlns="http://www.w3.org/2000/svg" viewBox="0 0 36 36" width="36" height="36">
	<title>Contact</title>
	<style>
		tspan { white-space:pre }
		.shp0 { fill: #55acee } 
		.shp1 { fill: #f1f2f2 } 
	</style>
	<g id="Contact">
		<g id="Footer">
			<g id="Group 43">
				<g id="002-twitter">
					<path id="Ellipse 16" class="shp0" d="M17.9 35C8.22 35 0.4 27.18 0.4 17.5C0.4 7.82 8.22 0 17.9 0C27.58 0 35.4 7.82 35.4 17.5C35.4 27.18 27.58 35 17.9 35Z" />
					<g id="Group 39">
						<path id="Path 17" class="shp1" d="M28.6 12.59C28.04 13.43 27.33 14.17 26.52 14.75C26.52 14.93 26.53 15.11 26.53 15.29C26.53 20.81 22.33 27.17 14.65 27.17C12.3 27.17 10.1 26.48 8.26 25.29C8.58 25.33 8.92 25.35 9.25 25.35C11.21 25.35 13.01 24.68 14.44 23.57C12.61 23.53 11.07 22.32 10.54 20.67C10.79 20.72 11.05 20.74 11.32 20.74C11.7 20.74 12.07 20.69 12.42 20.59C10.51 20.21 9.07 18.52 9.07 16.5C9.07 16.49 9.07 16.47 9.07 16.45C9.64 16.76 10.28 16.95 10.96 16.97C9.84 16.22 9.11 14.95 9.11 13.5C9.11 12.73 9.31 12.02 9.67 11.4C11.73 13.93 14.81 15.59 18.27 15.76C18.2 15.46 18.17 15.14 18.17 14.81C18.17 12.51 20.04 10.64 22.34 10.64C23.54 10.64 24.62 11.14 25.39 11.95C26.34 11.77 27.23 11.42 28.04 10.94C27.72 11.92 27.06 12.73 26.2 13.25C27.04 13.15 27.85 12.93 28.6 12.59L28.6 12.59Z" />
					</g>
				</g>
			</g>
		</g>
	</g>
</svg>